<?xml version="1.0" encoding="UTF-8" standalone="no"?>
<!-- Created with Inkscape (http://www.inkscape.org/) -->
<svg id="svg2" xmlns:rdf="http://www.w3.org/1999/02/22-rdf-syntax-ns#" xmlns="http://www.w3.org/2000/svg" viewBox="0 0 1052.4 744.09" version="1.1" xmlns:cc="http://creativecommons.org/ns#" xmlns:dc="http://purl.org/dc/elements/1.1/">
   <path id="d2blogopath" transform="translate(0 -308.27)" d="m663.2 814.99c-0.16603 8.6328-0.24904 15.951-0.24902 21.956-0.00002 2.7946 0.42885 4.7245 1.2866 5.7898 0.85773 1.0653 2.504 1.5979 4.939 1.5979 1.8815 0 3.929-0.11067 6.1426-0.33203l0.33203 2.4902c-4.3994 2.1582-8.5083 3.2373-12.327 3.2373-3.8737 0-6.8689-0.80933-8.9856-2.428-2.1167-1.6186-3.1751-4.0605-3.175-7.3254-0.00001-5.7552 0.083-14.153 0.24902-25.193l-5.603-1.4526-0.37353-2.2412 6.9312-0.62256 3.9429-9.7534c2.3519-0.41499 4.4962-0.81619 6.4331-1.2036l0.58105 0.29053c-0.083 3.348-0.12453 6.9035-0.12451 10.666h11.621v4.5239zm-71.304-2.9883c6.3916-0.94072 12.23-1.9922 17.515-3.1543l0.62256 0.33203v4.4409c4.6761-3.0989 9.2968-4.6484 13.862-4.6484 4.0397 0.00004 7.2078 1.0999 9.5044 3.2996 2.2965 2.1997 3.4448 5.3194 3.4448 9.3591v14.568c-0.00005 3.4587 0.0276 6.0181 0.083 7.6782 0.0276 0.74707 0.38732 1.2174 1.0791 1.4111l5.022 1.4526 0.12451 1.9922c-3.9568-0.083-7.9411-0.12451-11.953-0.12451-4.1504 0-7.8858 0.0415-11.206 0.12451l-0.16601-1.9922 4.1504-1.2451c0.63636-0.19368 0.98222-0.60872 1.0376-1.2451 0.0276-0.41503 0.0415-1.2866 0.0415-2.6147v-17.39c-0.00003-3.4033-0.6641-5.8451-1.9922-7.3254-1.3282-1.4803-3.3065-2.2204-5.9351-2.2205-2.2966 0.00003-4.6623 0.6641-7.0972 1.9922v17.847c-0.00002 3.4587 0.0276 6.6268 0.083 9.5044 0.0276 0.74708 0.34585 1.2036 0.95459 1.3696l4.3164 1.3281 0.083 1.9922c-3.431-0.083-7.1664-0.12451-11.206-0.12451-4.1227 0-8.1763 0.0415-12.161 0.12451l-0.20752-1.9922 5.354-1.4526c0.60872-0.16601 0.92692-0.58105 0.95459-1.2451 0.0277-1.7708 0.0415-3.4725 0.0415-5.105v-13.655c-0.00001-3.6246-0.0554-6.9726-0.16602-10.044l-5.9351-1.5356zm-5.188 33.867c-5.1188 2.6009-10.514 3.9014-16.187 3.9014-6.7513 0-12.264-1.6671-16.539-5.0012-4.2749-3.3341-6.4124-8.2524-6.4124-14.755-0.00001-6.1979 2.0544-11.254 6.1633-15.17 4.1089-3.9152 9.3453-5.8728 15.709-5.8728 5.5615 0.00004 9.8571 1.5011 12.887 4.5032 3.0297 3.0022 4.5446 7.1456 4.5447 12.43-0.00005 0.80244-0.0416 1.6325-0.12451 2.4902h-26.521c-0.00002 5.5615 1.3627 9.5597 4.0881 11.995 2.7254 2.4349 7.2009 3.6524 13.427 3.6523 3.0159 0.00001 5.8935-0.26285 8.6328-0.78857zm-12.451-21.499v-0.99609c-0.00003-3.763-0.47732-6.4608-1.4319-8.0933-0.95461-1.6324-2.4142-2.4487-4.3787-2.4487-2.3519 0.00004-4.2265 1.1276-5.6238 3.3826-1.3973 2.2551-2.2066 4.9736-2.428 8.1555zm-64.871-12.368c6.3916-0.94072 12.23-1.9922 17.515-3.1543l0.62256 0.33203v4.4824c4.8974-3.1266 10.016-4.6899 15.356-4.6899l0.20752 0.29053c-0.88546 4.3994-1.7294 9.1032-2.5317 14.111l-2.4072 0.41504c-0.71943-2.7392-1.425-4.8421-2.1167-6.3086-0.69176-1.4664-1.7709-2.1997-3.2373-2.1997-1.4112 0.00004-3.1682 0.47042-5.271 1.4111v17.805c-0.00002 4.2888 0.0276 7.36 0.083 9.2139 0.0276 0.77474 0.37351 1.259 1.0376 1.4526l5.9351 1.5772 0.12451 1.9922c-4.5931-0.083-8.9787-0.12451-13.157-0.12451-3.9844 0-7.9688 0.0415-11.953 0.12451l-0.20752-1.9922 5.271-1.4526c0.66405-0.19368 1.0099-0.60872 1.0376-1.2451 0.0277-1.1898 0.0415-2.8914 0.0415-5.105v-13.862c-0.00001-4.5101-0.0553-7.7889-0.16601-9.8364l-5.9351-1.5356zm-5.188 33.867c-5.1189 2.6009-10.514 3.9014-16.187 3.9014-6.7513 0-12.264-1.6671-16.539-5.0012-4.2749-3.3341-6.4124-8.2524-6.4124-14.755 0-6.1979 2.0544-11.254 6.1633-15.17 4.1089-3.9152 9.3453-5.8728 15.709-5.8728 5.5615 0.00004 9.8571 1.5011 12.887 4.5032 3.0298 3.0022 4.5446 7.1456 4.5447 12.43-0.00004 0.80244-0.0415 1.6325-0.12451 2.4902h-26.521c-0.00001 5.5615 1.3627 9.5597 4.0881 11.995 2.7254 2.4349 7.2009 3.6524 13.427 3.6523 3.0159 0.00001 5.8935-0.26285 8.6328-0.78857zm-12.451-21.499v-0.99609c-0.00003-3.763-0.47732-6.4608-1.4319-8.0933-0.95462-1.6324-2.4142-2.4487-4.3787-2.4487-2.3519 0.00004-4.2265 1.1276-5.6238 3.3826-1.3973 2.2551-2.2066 4.9736-2.428 8.1555zm-39.968-9.3799v21.914c-0.00002 2.6009 0.0276 4.8698 0.083 6.8066 0.0553 0.77474 0.41502 1.259 1.0791 1.4526l5.686 1.5772 0.12451 1.9922c-4.4548-0.083-8.702-0.12451-12.742-0.12451-4.1227 0-8.1901 0.0415-12.202 0.12451l-0.20752-1.9922 5.105-1.3696c0.77473-0.22135 1.1759-0.66406 1.2036-1.3281 0.083-1.7155 0.1245-3.5278 0.12451-5.437v-23.823l-6.0596-1.4526-0.37354-2.2412 6.4746-0.53955c-0.00001-7.7474 1.7501-13.765 5.2502-18.054 3.5002-4.2887 8.363-6.433 14.589-6.4331 3.2926 0.00007 6.2947 0.38744 9.0064 1.1621-0.88546 3.9014-1.6187 7.8166-2.1997 11.746l-2.2827 0.45654-2.5732-9.2969c-0.41507-0.0829-0.89928-0.12446-1.4526-0.12451-2.9053 0.00005-5.0704 1.3766-6.4954 4.1296-1.425 2.7532-2.1375 7.8235-2.1374 15.211v1.1206h10.044v4.5239zm-30.049 0v21.914c-0.00002 2.6009 0.0276 4.8698 0.083 6.8066 0.0553 0.77474 0.41502 1.259 1.0791 1.4526l5.686 1.5772 0.12451 1.9922c-4.4548-0.083-8.702-0.12451-12.742-0.12451-4.1227 0-8.1901 0.0415-12.202 0.12451l-0.20752-1.9922 5.105-1.3696c0.77474-0.22135 1.1759-0.66406 1.2036-1.3281 0.083-1.7155 0.1245-3.5278 0.12451-5.437v-23.823l-6.0596-1.4526-0.37354-2.2412 6.4746-0.53955c-0.00001-7.7474 1.7501-13.765 5.2502-18.054 3.5001-4.2887 8.363-6.433 14.589-6.4331 3.2926 0.00007 6.2947 0.38744 9.0064 1.1621-0.88546 3.9014-1.6187 7.8166-2.1997 11.746l-2.2827 0.45654-2.5732-9.2969c-0.41507-0.0829-0.89928-0.12446-1.4526-0.12451-2.9053 0.00005-5.0704 1.3766-6.4954 4.1296-1.425 2.7532-2.1375 7.8235-2.1375 15.211v1.1206h10.044v4.5239zm-28.057-19.922c-0.00002 1.9092-0.61566 3.4587-1.8469 4.6484-1.2313 1.1898-2.843 1.7847-4.8352 1.7847-1.8262 0.00005-3.3272-0.56026-4.5032-1.6809s-1.7639-2.5801-1.7639-4.3787c0-1.9645 0.62256-3.5139 1.8677-4.6484 1.2451-1.1344 2.8638-1.7016 4.856-1.7017 1.8262 0.00006 3.3203 0.51886 4.4824 1.5564 1.1621 1.0376 1.7431 2.511 1.7432 4.4202zm-18.262 16.934c6.8066-1.0237 12.783-2.089 17.93-3.1958l0.45655 0.33203c-0.16604 3.8184-0.24905 7.8858-0.24903 12.202v15.647c-0.00002 3.2926 0.0276 5.5892 0.083 6.8896 0.0553 0.74707 0.40118 1.2174 1.0376 1.4111l5.188 1.4526 0.12451 1.9922c-4.0951-0.083-8.1625-0.12451-12.202-0.12451-4.1227 0-8.1901 0.0415-12.202 0.12451l-0.20752-1.9922 5.271-1.4526c0.63638-0.16601 0.98225-0.58105 1.0376-1.2451 0.0553-1.0791 0.083-2.8914 0.083-5.437v-13.364c-0.00001-3.6246-0.0553-6.9588-0.16601-10.002l-5.9351-1.5356zm-22.08 2.1167c-1.4942-0.52569-3.1682-0.78854-5.022-0.78858-3.7907 0.00004-6.6822 1.3074-8.6743 3.9221-1.9922 2.6148-2.9883 6.5507-2.9883 11.808-0.00002 4.5654 0.8854 8.2178 2.6562 10.957 1.7708 2.7393 4.261 4.1089 7.4707 4.1089 2.3795 0 4.5654-0.51188 6.5576-1.5356zm-6.5576-24.861c6.7513-1.0237 12.783-2.089 18.096-3.1958l0.49805 0.33204c-0.19373 5.9213-0.29057 12.285-0.29053 19.092v22.578c-0.00004 3.6247 0.0138 7.36 0.0415 11.206-0.00005 1.4111 0.0553 2.5456 0.16601 3.4033 0.11063 0.85776 0.35274 1.5149 0.72632 1.9714 0.37349 0.45655 0.94763 0.76782 1.7224 0.93384 0.77469 0.16601 1.9091 0.26286 3.4033 0.29052l0.24903 1.8262c-4.0398 1.3835-7.4846 2.0752-10.334 2.0752-3.7077 0-6.1426-1.508-7.3047-4.5239-3.6247 3.016-7.6368 4.5239-12.036 4.5239-5.4785 0-9.8088-1.8054-12.991-5.4163-3.182-3.6108-4.773-8.1278-4.773-13.551 0-6.9173 2.0544-12.264 6.1633-16.041 4.1089-3.7768 9.8572-5.6652 17.245-5.6653 1.8262 0.00004 3.8183 0.15222 5.9766 0.45655-0.00004-5.8382-0.0554-11.483-0.16602-16.934l-6.1011-1.6602zm357.89-49.64c-5.1188 2.6009-10.514 3.9014-16.187 3.9014-6.7513 0-12.264-1.6671-16.539-5.0012-4.2749-3.3341-6.4124-8.2524-6.4124-14.755 0-6.1979 2.0544-11.254 6.1633-15.17 4.1089-3.9152 9.3453-5.8728 15.709-5.8728 5.5615 0.00004 9.8571 1.5011 12.887 4.5032 3.0298 3.0022 4.5446 7.1456 4.5447 12.43-0.00004 0.80244-0.0415 1.6325-0.12451 2.4902h-26.521c-0.00002 5.5615 1.3627 9.5597 4.0881 11.995 2.7254 2.4349 7.2009 3.6524 13.427 3.6523 3.0159 0.00001 5.8935-0.26285 8.6328-0.78857zm-12.451-21.499v-0.99609c-0.00003-3.763-0.47732-6.4608-1.4319-8.0933-0.95462-1.6324-2.4142-2.4487-4.3787-2.4487-2.3519 0.00004-4.2265 1.1276-5.6238 3.3826-1.3973 2.2551-2.2066 4.9736-2.428 8.1555zm-62.712 20.503c1.8262 0.49805 3.6523 0.74707 5.4785 0.74707 3.763 0 6.5783-1.3904 8.446-4.1711 1.8676-2.7808 2.8015-6.7444 2.8015-11.891-0.00003-4.7038-0.87161-8.3699-2.6147-10.999-1.7432-2.6285-4.3164-3.9428-7.7197-3.9429-2.1582 0.00004-4.2888 0.45658-6.3916 1.3696zm0.24902-58.479c-0.16603 4.1228-0.24904 10.307-0.24902 18.552v7.9272c4.2334-2.6009 8.3561-3.9013 12.368-3.9014 5.2571 0.00004 9.4144 1.7501 12.472 5.2502 3.0574 3.5002 4.5861 8.0725 4.5862 13.717-0.00005 6.8897-2.179 12.244-6.5369 16.062-4.3579 3.8184-10.397 5.7275-18.116 5.7275-4.8421 0-10.39-0.89925-16.643-2.6978 0.0553-3.2926 0.083-7.7059 0.083-13.24v-24.612c-0.00001-6.1149-0.0554-11.635-0.16602-16.56l-6.1011-1.6602-0.24902-1.7017c6.8896-1.0237 12.922-2.089 18.096-3.1958zm-74.5 42.5c-0.00002 5.0358 0.75397 9.124 2.262 12.264 1.508 3.1405 3.9221 4.7107 7.2424 4.7107 3.0989 0.00001 5.3747-1.3835 6.8274-4.1504 1.4526-2.7669 2.1789-6.8758 2.179-12.327-0.00003-5.1188-0.76785-9.1516-2.3035-12.098-1.5357-2.9467-3.936-4.4201-7.2009-4.4202-3.0436 0.00003-5.3056 1.3282-6.7859 3.9844-1.4803 2.6563-2.2205 6.6683-2.2205 12.036zm31.377-0.33204c-0.00004 6.3086-2.1029 11.421-6.3086 15.336-4.2058 3.9152-9.6843 5.8728-16.436 5.8728-6.5576 0-11.787-1.8469-15.688-5.5408-3.9014-3.6938-5.8521-8.529-5.852-14.506-0.00001-6.0595 2.0475-11.033 6.1426-14.921 4.095-3.8875 9.6289-5.8313 16.602-5.8313 6.6129 0.00004 11.856 1.7916 15.73 5.3748 3.8736 3.5832 5.8105 8.3216 5.8105 14.215zm-61.965-13.572c-0.16603 8.6328-0.24904 15.951-0.24902 21.956-0.00002 2.7946 0.42885 4.7245 1.2866 5.7898 0.85773 1.0653 2.504 1.5979 4.939 1.5979 1.8815 0 3.929-0.11067 6.1426-0.33203l0.33203 2.4902c-4.3994 2.1582-8.5083 3.2373-12.327 3.2373-3.8737 0-6.8689-0.80933-8.9856-2.428-2.1167-1.6186-3.1751-4.0605-3.175-7.3254-0.00001-5.7552 0.083-14.153 0.24902-25.193l-5.603-1.4526-0.37353-2.2412 6.9312-0.62256 3.9429-9.7534c2.3519-0.41499 4.4962-0.81619 6.4331-1.2036l0.58105 0.29053c-0.083 3.348-0.12453 6.9035-0.12451 10.666h11.621v4.5239zm-42.458 30.879c-5.1189 2.6009-10.514 3.9014-16.187 3.9014-6.7513 0-12.264-1.6671-16.539-5.0012-4.2749-3.3341-6.4124-8.2524-6.4124-14.755 0-6.1979 2.0544-11.254 6.1633-15.17 4.1089-3.9152 9.3453-5.8728 15.709-5.8728 5.5615 0.00004 9.8571 1.5011 12.887 4.5032 3.0298 3.0022 4.5446 7.1456 4.5447 12.43-0.00004 0.80244-0.0415 1.6325-0.12451 2.4902h-26.521c-0.00001 5.5615 1.3627 9.5597 4.0881 11.995 2.7254 2.4349 7.2009 3.6524 13.427 3.6523 3.0159 0.00001 5.8935-0.26285 8.6328-0.78857zm-12.451-21.499v-0.99609c-0.00003-3.763-0.47732-6.4608-1.4319-8.0933-0.95462-1.6324-2.4142-2.4487-4.3787-2.4487-2.3519 0.00004-4.2265 1.1276-5.6238 3.3826-1.3973 2.2551-2.2066 4.9736-2.428 8.1555zm-64.871-12.368c6.3916-0.94072 12.23-1.9922 17.515-3.1543l0.62256 0.33203v4.4824c4.8974-3.1266 10.016-4.6899 15.356-4.6899l0.20752 0.29053c-0.88545 4.3994-1.7294 9.1032-2.5317 14.111l-2.4072 0.41504c-0.71944-2.7392-1.425-4.8421-2.1167-6.3086-0.69176-1.4664-1.7709-2.1997-3.2373-2.1997-1.4112 0.00004-3.1682 0.47042-5.271 1.4111v17.805c-0.00002 4.2888 0.0276 7.36 0.083 9.2139 0.0276 0.77474 0.37352 1.259 1.0376 1.4526l5.9351 1.5772 0.12451 1.9922c-4.5931-0.083-8.9787-0.12451-13.157-0.12451-3.9844 0-7.9688 0.0415-11.953 0.12451l-0.20752-1.9922 5.271-1.4526c0.66406-0.19368 1.0099-0.60872 1.0376-1.2451 0.0277-1.1898 0.0415-2.8914 0.0415-5.105v-13.862c-0.00001-4.5101-0.0554-7.7889-0.16602-9.8364l-5.9351-1.5356zm-21.084 18.137c-4.3441 0.00002-7.443 0.55341-9.2969 1.6602s-2.7808 3.0021-2.7808 5.686c-0.00002 2.4349 0.65713 4.1712 1.9714 5.2087 1.3143 1.0376 2.8707 1.5564 4.6692 1.5564 2.0475 0.00001 3.8322-0.52571 5.354-1.5772zm-20.295-17.141c5.8936-2.6839 11.566-4.0258 17.017-4.0259 4.9804 0.00004 8.7089 1.1137 11.185 3.3411 2.4764 2.2274 3.7007 5.4301 3.6731 9.6082l-0.20752 17.266c-0.0554 1.4112-0.0277 2.5456 0.083 3.4033 0.11064 0.85775 0.36658 1.5149 0.76782 1.9714 0.40117 0.45655 0.99606 0.78166 1.7847 0.97534 0.78854 0.19369 1.9299 0.30437 3.4241 0.33203l0.24903 1.9092c-3.8737 1.3281-7.2079 1.9922-10.002 1.9922-3.763 0-6.2394-1.4803-7.4292-4.4409-3.514 2.9606-7.2355 4.4409-11.165 4.4409-3.846 0-7.0142-0.96151-9.5044-2.8845s-3.7354-4.6277-3.7354-8.114c0-4.3441 2.0129-7.526 6.0388-9.5459 4.0259-2.0198 10.065-3.0298 18.116-3.0298l0.0415-3.1128c0.0276-2.9606-0.68484-5.1395-2.1374-6.5369-1.4527-1.3973-3.7146-2.0959-6.7859-2.0959-2.85 0.00003-6.2671 0.62259-10.251 1.8677zm-58.271 35.61c-3.5694 0-7.2494 0.0415-11.04 0.12451l-0.20752-2.0752 5.5615-1.5356c0.7194-0.22135 1.0929-0.65022 1.1206-1.2866 0.0277-1.1068 0.0484-2.345 0.0623-3.7146 0.0138-1.3696 0.0207-2.8845 0.0208-4.5447v-33.079c-0.00001-1.3834-0.007-2.6424-0.0208-3.7768s-0.0346-2.172-0.0623-3.1128c-0.0277-0.71934-0.35971-1.1759-0.99609-1.3696l-5.5615-1.6186-0.12451-2.1167c3.8737 0.11074 7.5814 0.16608 11.123 0.16602 2.9883 0.00006 5.852-0.0691 8.5913-0.20752 2.7392-0.13829 5.5753-0.20746 8.5083-0.20752 10.321 0.00006 18.082 2.2067 23.284 6.6199 5.2018 4.4133 7.8027 10.964 7.8027 19.652-0.00006 10.238-2.8846 18.186-8.6536 23.844-5.7691 5.6584-13.883 8.4875-24.342 8.4876-2.8776-0.00001-5.437-0.0415-7.6782-0.12452-2.2412-0.083-4.7038-0.12451-7.3877-0.12451zm7.9688-4.2334c1.3281 0.24903 2.6286 0.40813 3.9014 0.4773 1.2728 0.0692 2.5594 0.10376 3.8599 0.10376 6.0042 0 10.57-2.1167 13.696-6.3501 3.1266-4.2334 4.6899-10.68 4.6899-19.341-0.00005-8.4391-1.4942-14.699-4.4824-18.781-2.9883-4.0812-7.6921-6.1218-14.111-6.1218-2.3796 0.00005-4.8975 0.11073-7.5537 0.33203zm-86.06-145.92c0-33.594-0.39062-68.229-1.1719-103.91l19.531-1.9531 14.453 52.344c2.0833 6.7707 6.1198 10.286 12.109 10.547 10.417 0.26032 22.07 0.45564 34.961 0.58594 12.891 0.13011 27.148 0.19522 42.773 0.19532l311.33 0.00001c13.02-0.0001 24.869-0.0652 35.547-0.19531 10.677-0.1303 20.442-0.32562 29.297-0.58594 6.7703-0.26051 11.067-3.3855 12.891-9.375l15.234-52.344 19.922-1.1719c-1.0422 36.458-1.563 71.354-1.5625 104.69-0.00055 28.125 0.65049 55.078 1.9531 80.859 1.3015 25.781 1.9526 52.474 1.9531 80.078-0.00055 97.135-20.769 170.18-62.305 219.14-41.537 48.958-103.19 73.437-184.96 73.438-96.354-0.0006-171.16-27.149-224.41-81.445-53.255-54.297-79.883-130.66-79.883-229.1 0-27.084 0.39063-51.172 1.1719-72.266 0.78125-21.094 1.1719-44.271 1.1719-69.531zm39.844 75c-2.3438 12.5-3.8412 24.739-4.4922 36.719-0.65107 11.979-0.97659 24.088-0.97656 36.328-0.00004 56.51 19.922 99.479 59.766 128.91 39.844 29.427 100.52 44.14 182.03 44.141 79.427-0.00045 138.35-14.063 176.76-42.187 38.411-28.125 57.617-72.396 57.617-132.81-0.00051-22.396-1.0422-46.094-3.125-71.094zm324.86-297.17c11.393 0.32569 23.112 0.48845 35.156 0.48828 4.3945-0.16259 11.271-0.40673 20.63-0.73242 9.3586-0.32535 15.788-0.48811 19.287-0.48829 20.589 0.00018 36.112 3.3164 46.57 9.9487 10.457 6.6326 15.686 16.174 15.686 28.625-0.00015 19.531-11.556 33.04-34.668 40.527 13.428 1.8718 23.783 6.5512 31.067 14.038 7.2834 7.487 10.925 16.846 10.925 28.076-0.00016 16.276-6.5513 28.87-19.653 37.781-13.102 8.9111-31.657 13.367-55.664 13.367-4.7201-0.00001-9.664-0.12208-14.832-0.36622-5.1677-0.24414-11.617-0.36621-19.348-0.36621-11.882 0-23.397 0.12207-34.546 0.36621l-0.61035-6.1035 16.357-4.5166c2.0345-0.56965 3.1331-1.831 3.2959-3.7842 0.0813-3.2552 0.14239-6.897 0.18311-10.925 0.0407-4.0283 0.061-8.4838 0.061-13.367v-97.29c-0.00003-4.0689-0.0204-7.7717-0.061-11.108-0.0407-3.3364-0.10176-6.3882-0.18311-9.1553-0.0814-2.1157-1.058-3.4585-2.9297-4.0283l-16.357-4.7607zm56.274 86.426v72.998c4.5572 0.73244 9.3586 1.0986 14.404 1.0986 11.149 0.00001 19.613-3.2348 25.391-9.7046 5.7779-6.4697 8.6669-15.849 8.667-28.137-0.00012-12.288-2.9298-21.423-8.7891-27.405-5.8595-5.9814-15.34-8.9721-28.442-8.9722-3.8249 0.00008-7.5684 0.0408-11.23 0.12207zm0-10.986c4.1503 0.0815 8.0973 0.12217 11.841 0.12207 10.417 0.0001 18.127-2.5023 23.132-7.5073 5.0048-5.0048 7.5072-13.489 7.5073-25.452-0.00011-11.23-2.5839-19.287-7.7515-24.17-5.1677-4.8826-12.634-7.3241-22.4-7.3242-1.5463 0.00016-3.357 0.0612-5.4321 0.18311-2.0753 0.12223-4.3743 0.34603-6.897 0.67139zm-82.397 53.101 7.0801-0.97657-2.4414 42.847-0.85449 0.85449c-15.951-0.24414-33.325-0.36621-52.124-0.36621-17.253 0-34.424 0.12207-51.514 0.36621l-0.85449-14.893c6.9173-4.6387 13.55-9.0535 19.897-13.245 6.3476-4.191 11.881-7.9549 16.602-11.292 5.0455-3.4993 9.2366-6.7748 12.573-9.8267 3.3365-3.0517 5.9814-6.0221 7.9346-8.9111 1.9531-2.8889 3.3365-5.7372 4.1504-8.5449 0.81374-2.8076 1.2206-5.7576 1.2207-8.8501-0.00006-7.1614-2.6653-12.817-7.9956-16.968-5.3305-4.1503-12.024-6.2255-20.081-6.2256-8.2194 0.0001-17.049 2.5636-26.489 7.6904l-4.6387-9.7656c15.218-10.335 30.884-15.503 46.997-15.503 13.428 0.00011 24.495 3.3164 33.203 9.9487 8.7076 6.6326 13.061 14.832 13.062 24.597-0.0001 5.9408-1.3225 11.149-3.9673 15.625-2.645 4.476-6.6326 8.8095-11.963 13-5.3305 4.1911-12.024 8.545-20.081 13.062-8.0567 4.5166-17.497 9.7453-28.32 15.686l0.12207 0.61035h59.448zm-259.16 42.358c-10.498 0-21.322 0.12207-32.471 0.36621l-0.61036-6.1035 16.357-4.5166c2.1158-0.65103 3.2145-1.9124 3.2959-3.7842 0.0813-3.2552 0.14238-6.897 0.1831-10.925 0.0407-4.0283 0.061-8.4838 0.061-13.367v-97.29c-0.00003-4.0689-0.0204-7.7717-0.061-11.108-0.0407-3.3364-0.10175-6.3882-0.1831-9.1553-0.0814-2.1157-1.058-3.4585-2.9297-4.0283l-16.357-4.7607-0.36622-6.2256c11.393 0.32569 22.298 0.48845 32.715 0.48828 8.789 0.00017 17.212-0.20328 25.269-0.61035 8.0566-0.40673 16.398-0.61018 25.024-0.61036 30.355 0.00018 53.182 6.4902 68.481 19.47s22.949 32.247 22.949 57.8c-0.00018 30.111-8.4841 53.487-25.452 70.129s-40.833 24.963-71.594 24.963c-8.4636-0.00001-15.991-0.12208-22.583-0.36622-6.5919-0.24414-13.835-0.36621-21.729-0.36621zm23.438-12.451c3.9062 0.73244 7.731 1.2004 11.475 1.4038 3.7434 0.20346 7.5276 0.30519 11.353 0.30518 17.659 0.00001 31.087-6.2256 40.283-18.677 9.1958-12.451 13.794-31.413 13.794-56.885-0.00015-24.821-4.3947-43.233-13.184-55.237-8.7892-12.003-22.624-18.005-41.504-18.005-6.9988 0.00015-14.404 0.32568-22.217 0.97656z"/>
</svg>
